HIERARCHY
ROOT Hips
{
 OFFSET 0.000000 0.000000 0.000000
 CHANNELS 6 Xposition Yposition Zposition Yrotation Xrotation Zrotation
 JOINT Chest
 {
  OFFSET 0.000000 9.585900 0.002600
  CHANNELS 3 Yrotation Xrotation Zrotation
  JOINT Chest2
  {
   OFFSET 0.000000 9.601200 -0.005300
   CHANNELS 3 Yrotation Xrotation Zrotation
   JOINT Chest3
   {
    OFFSET 0.000000 9.561800 0.000000
    CHANNELS 3 Yrotation Xrotation Zrotation
    JOINT Chest4
    {
     OFFSET 0.000000 9.552100 0.000000
     CHANNELS 3 Yrotation Xrotation Zrotation
     JOINT Neck
     {
      OFFSET 0.000000 14.453000 0.000000
      CHANNELS 3 Yrotation Xrotation Zrotation
      JOINT Head
      {
       OFFSET 0.000000 8.936500 -0.011300
       CHANNELS 3 Yrotation Xrotation Zrotation
       End Site
       {
        OFFSET 0.000000 17.073600 -0.006000
       }
      }
     }
     JOINT RightCollar
     {
      OFFSET -2.921100 9.558500 0.000000
      CHANNELS 3 Yrotation Xrotation Zrotation
      JOINT RightShoulder
      {
       OFFSET -13.519700 0.000000 0.000000
       CHANNELS 3 Yrotation Xrotation Zrotation
       JOINT RightElbow
       {
        OFFSET 0.000000 -29.696600 0.000000
        CHANNELS 3 Yrotation Xrotation Zrotation
        JOINT RightWrist
        {
         OFFSET 0.000000 -24.004700 0.000000
         CHANNELS 3 Yrotation Xrotation Zrotation
         End Site
         {
          OFFSET 0.000000 -17.728500 0.000000
         }
        }
       }
      }
     }
     JOINT LeftCollar
     {
      OFFSET 2.921100 9.558500 0.000000
      CHANNELS 3 Yrotation Xrotation Zrotation
      JOINT LeftShoulder
      {
       OFFSET 13.519700 0.000000 0.000000
       CHANNELS 3 Yrotation Xrotation Zrotation
       JOINT LeftElbow
       {
        OFFSET 0.000000 -29.696600 0.000000
        CHANNELS 3 Yrotation Xrotation Zrotation
        JOINT LeftWrist
        {
         OFFSET 0.000000 -24.004700 0.000000
         CHANNELS 3 Yrotation Xrotation Zrotation
         End Site
         {
          OFFSET 0.000000 -17.728500 0.000000
         }
        }
       }
      }
     }
    }
   }
  }
 }
 JOINT RightHip
 {
  OFFSET -7.771700 -0.012900 -0.001300
  CHANNELS 3 Yrotation Xrotation Zrotation
  JOINT RightKnee
  {
   OFFSET 0.000000 -40.869800 0.001200
   CHANNELS 3 Yrotation Xrotation Zrotation
   JOINT RightAnkle
   {
    OFFSET 0.000000 -39.717900 0.002100
    CHANNELS 3 Yrotation Xrotation Zrotation
    JOINT RightToe
    {
     OFFSET 0.000000 -4.965400 11.033500
     CHANNELS 3 Yrotation Xrotation Zrotation
     End Site
     {
      OFFSET 0.000000 -1.423100 5.872300
     }
    }
   }
  }
 }
 JOINT LeftHip
 {
  OFFSET 7.771700 -0.012900 -0.001300
  CHANNELS 3 Yrotation Xrotation Zrotation
  JOINT LeftKnee
  {
   OFFSET 0.000000 -40.869800 0.001200
   CHANNELS 3 Yrotation Xrotation Zrotation
   JOINT LeftAnkle
   {
    OFFSET 0.000000 -39.717900 0.002100
    CHANNELS 3 Yrotation Xrotation Zrotation
    JOINT LeftToe
    {
     OFFSET 0.000000 -4.965400 11.033500
     CHANNELS 3 Yrotation Xrotation Zrotation
     End Site
     {
      OFFSET 0.000000 -1.423100 5.872300
     }
    }
   }
  }
 }
}
MOTION
Frames: 9
Frame Time: 0.008333
0.000000 85.388000 0.000000 0.000000 -5.767877 0.000000 0.000000 11.653817 0.000000 0.000000 -5.885947 0.000000 0.000000 -0.000000 0.000000 0.000000 -0.000000 0.000000 0.000000 12.528835 0.000000 0.000000 0.711642 0.000000 0.000000 -0.000000 0.000000 0.000000 0.000000 -90.000000 0.000000 -2.309062 0.000000 0.000000 2.309062 0.000000 0.000000 -0.000000 0.000000 0.000000 -0.000000 90.000000 0.000000 -2.309062 0.000000 0.000000 2.309062 0.000000 0.000000 8.520406 0.000000 0.000000 1.905762 0.000000 -0.000000 -4.658285 0.000000 0.000000 -0.000000 0.000000 0.000000 8.520406 0.000000 0.000000 1.905762 0.000000 -0.000000 -4.658285 0.000000 0.000000 -0.000000 0.000000
1.904841 50.168952 41.004363 171.997399 -29.468353 -5.729907 7.066802 21.780495 7.458761 0.850805 3.284358 0.758498 1.322888 5.254446 1.216216 5.475719 18.476837 5.063498 -2.453439 13.918729 -0.211783 -4.540015 -9.916560 0.556311 1.251638 -1.942026 -3.466200 5.040771 -14.725174 -4.739379 -135.998179 -57.314740 129.988680 -12.712734 -6.894337 20.593191 -12.127742 -2.367886 -1.214786 6.376296 -14.102686 0.802488 123.619137 -48.743482 -126.544535 41.680115 2.760347 -4.233095 -2.342035 -51.031241 11.171934 -95.044742 82.580809 -82.609666 0.451299 -9.750659 -6.296850 -0.185668 0.932463 -0.088728 -9.558792 -55.156834 16.947648 -147.814208 83.304063 -155.279688 0.218082 -13.442593 7.552491 -0.347220 -0.669449 -0.239210
1.906647 50.164851 41.000993 171.994667 -29.468773 -5.758337 7.062192 21.773497 7.475191 0.829920 3.272601 0.748678 1.318718 5.235525 1.214256 5.458043 18.461083 5.059857 -2.408135 13.931658 -0.159436 -4.474690 -9.891939 0.636899 1.210923 -1.891242 -3.452495 5.005738 -14.549134 -4.591409 -136.478056 -57.456904 130.441916 -12.665556 -6.904244 20.639290 -12.076823 -2.299349 -1.226548 6.407311 -13.939243 0.814780 123.629833 -48.844918 -126.455925 41.417528 2.802591 -4.115151 -2.385725 -51.026718 11.218074 -95.063319 82.573914 -82.628782 0.482252 -9.754906 -6.286237 -0.207154 0.948674 -0.102357 -9.684716 -55.159031 17.019656 -147.781833 83.274704 -155.250278 0.290173 -13.429471 7.528175 -0.349668 -0.676840 -0.242892
1.911720 50.159262 40.999333 171.964359 -29.459716 -5.794505 7.072835 21.744229 7.498517 0.799099 3.237809 0.734722 1.338587 5.240128 1.224964 5.438141 18.443550 5.056532 -2.359429 13.952826 -0.102867 -4.404368 -9.852010 0.723812 1.159912 -1.845646 -3.438323 4.955977 -14.394577 -4.449133 -137.100516 -57.626388 131.043600 -12.606052 -6.924166 20.720398 -12.020279 -2.229641 -1.240227 6.411750 -13.762628 0.844280 123.776844 -48.955273 -126.487538 41.180519 2.838262 -4.139683 -2.437388 -51.025617 11.290531 -95.035666 82.581027 -82.591910 0.540793 -9.799300 -6.284350 -0.249716 1.006905 -0.125173 -9.820628 -55.166141 17.129877 -147.766002 83.248583 -155.238794 0.392865 -13.422619 7.513827 -0.389160 -0.684782 -0.262884
1.912056 50.152958 40.995535 171.969679 -29.452860 -5.816821 7.012863 21.693642 7.469326 0.807785 3.238652 0.740758 1.362056 5.263109 1.235723 5.391506 18.396175 5.043717 -2.307028 13.978231 -0.047326 -4.358379 -9.802330 0.736189 1.098666 -1.803490 -3.424071 4.898207 -14.277407 -4.317268 -137.827115 -57.812568 131.759046 -12.541497 -6.945082 20.824085 -11.980114 -2.155294 -1.256051 6.433044 -13.584022 0.884544 124.020094 -49.075254 -126.622823 40.982762 2.879436 -4.300540 -2.469305 -51.031140 11.321507 -95.047240 82.583700 -82.600044 0.539888 -9.806526 -6.279922 -0.249801 1.018668 -0.131212 -9.935771 -55.170674 17.189287 -147.901281 83.236993 -155.388880 0.435750 -13.425862 7.509588 -0.412608 -0.664817 -0.248040
1.917719 50.148471 40.989127 171.963781 -29.470779 -5.860597 6.992645 21.665616 7.484643 0.810063 3.235739 0.743578 1.376854 5.283861 1.243231 5.338981 18.338928 5.028661 -2.253078 14.001067 0.000008 -4.306552 -9.735775 0.754336 1.034275 -1.758808 -3.407907 4.838903 -14.205729 -4.208669 -138.616538 -57.999842 132.545466 -12.488673 -6.956373 20.954299 -11.941662 -2.085684 -1.269044 6.478650 -13.399818 0.925128 124.319006 -49.208821 -126.842851 40.828990 2.936030 -4.584817 -2.518739 -51.008449 11.391558 -95.028844 82.594897 -82.569994 0.533200 -9.806632 -6.283364 -0.250321 1.022869 -0.136694 -10.035498 -55.157570 17.262074 -147.857716 83.197835 -155.324931 0.474292 -13.427826 7.514646 -0.383483 -0.672913 -0.281875
1.921539 50.143141 40.982970 171.970406 -29.484942 -5.896976 6.962657 21.634227 7.489383 0.803216 3.223610 0.741929 1.371780 5.280403 1.245827 5.301531 18.300157 5.017877 -2.200755 14.019240 0.032753 -4.212814 -9.665810 0.838408 0.970349 -1.710152 -3.385832 4.781359 -14.175382 -4.134451 -139.422828 -58.173751 133.360081 -12.457528 -6.965891 21.105303 -11.904290 -2.012450 -1.280074 6.556651 -13.224030 0.963032 124.654472 -49.361030 -127.133250 40.720867 3.012843 -4.974527 -2.560647 -50.993245 11.437038 -95.053173 82.610806 -82.581514 0.523179 -9.799933 -6.288146 -0.249589 1.034030 -0.132569 -10.123656 -55.145777 17.312639 -147.896057 83.171101 -155.348565 0.509966 -13.440480 7.492585 -0.372116 -0.669158 -0.284277
1.922298 50.135843 40.979162 171.984604 -29.482258 -5.918452 6.935086 21.607539 7.487225 0.777806 3.178425 0.729318 1.320651 5.202275 1.225173 5.312044 18.328576 5.033513 -2.152273 14.037566 0.046378 -4.082480 -9.675688 0.912618 0.906739 -1.663926 -3.356108 4.730943 -14.173425 -4.101370 -140.213740 -58.320967 134.173910 -12.450788 -6.989913 21.254436 -11.903871 -1.992905 -1.294576 6.704817 -13.007474 1.012173 125.018877 -49.536661 -127.480467 40.655928 3.105488 -5.437290 -2.579698 -50.995265 11.450277 -95.071316 82.617567 -82.587803 0.522838 -9.811005 -6.291491 -0.251613 1.053944 -0.130287 -10.220766 -55.145465 17.356720 -148.107063 83.167272 -155.572742 0.539322 -13.454693 7.478193 -0.396821 -0.642922 -0.250018
1.926839 50.130835 40.972759 171.998400 -29.508040 -5.958362 6.919357 21.603735 7.508358 0.747242 3.123883 0.716121 1.293890 5.155992 1.215464 5.290698 18.319849 5.036036 -2.108250 14.063229 0.039546 -3.983569 -9.649146 0.890753 0.847035 -1.624879 -3.321937 4.692109 -14.192172 -4.110776 -140.975636 -58.434910 134.969129 -12.466036 -7.030796 21.390415 -11.878884 -1.955042 -1.313498 6.861437 -12.825113 1.064444 125.424239 -49.747299 -127.883968 40.619448 3.197874 -5.921492 -2.610241 -50.971926 11.487219 -95.112964 82.623342 -82.613038 0.525786 -9.792767 -6.293474 -0.264115 1.045763 -0.130482 -10.317174 -55.119808 17.398429 -148.329706 83.153322 -155.775814 0.570470 -13.471333 7.454092 -0.396321 -0.632100 -0.249693
